<?xml version="1.0" standalone="no"?><!DOCTYPE svg PUBLIC "-//W3C//DTD SVG 1.1//EN" "http://www.w3.org/Graphics/SVG/1.1/DTD/svg11.dtd"><svg t="1652108850256" class="icon" viewBox="0 0 1024 1024" version="1.1" xmlns="http://www.w3.org/2000/svg" p-id="1529" xmlns:xlink="http://www.w3.org/1999/xlink" width="200" height="200"><defs><style type="text/css">@font-face { font-family: feedback-iconfont; src: url("//at.alicdn.com/t/font_1031158_u69w8yhxdu.woff2?t=1630033759944") format("woff2"), url("//at.alicdn.com/t/font_1031158_u69w8yhxdu.woff?t=1630033759944") format("woff"), url("//at.alicdn.com/t/font_1031158_u69w8yhxdu.ttf?t=1630033759944") format("truetype"); }
</style></defs><path d="M680.73506633 912.1566238c-14.92535503 0-29.85071007-5.65592402-41.31966708-17.12488105L297.70332357 553.31966706c-22.78080506-22.78080506-22.78080506-59.7014201 0-82.48222515s59.7014201-22.78080506 82.48222518 0l341.71207567 341.71207569c22.78080506 22.78080506 22.78080506 59.7014201 0 82.48222515-11.31184801 11.46895703-26.23720306 17.12488105-41.16255809 17.12488105z" p-id="1530"></path><path d="M338.86588165 570.60165712c-14.92535503 0-29.85071007-5.65592402-41.31966708-17.12488103-22.78080506-22.78080506-22.78080506-59.7014201 0-82.48222518l341.86918468-341.86918468c22.78080506-22.78080506 59.7014201-22.78080506 82.48222517 0s22.78080506 59.7014201 0 82.48222517L380.18554875 553.63388507a58.66450071 58.66450071 0 0 1-41.3196671 16.96777205z" p-id="1531"></path></svg>