<?xml version="1.0" standalone="no"?><!DOCTYPE svg PUBLIC "-//W3C//DTD SVG 1.1//EN" "http://www.w3.org/Graphics/SVG/1.1/DTD/svg11.dtd"><svg t="1655829260163" class="icon" viewBox="0 0 1030 1024" version="1.1" xmlns="http://www.w3.org/2000/svg" p-id="78222" xmlns:xlink="http://www.w3.org/1999/xlink" width="64.375" height="64"><defs><style type="text/css">@font-face { font-family: feedback-iconfont; src: url("//at.alicdn.com/t/font_1031158_u69w8yhxdu.woff2?t=1630033759944") format("woff2"), url("//at.alicdn.com/t/font_1031158_u69w8yhxdu.woff?t=1630033759944") format("woff"), url("//at.alicdn.com/t/font_1031158_u69w8yhxdu.ttf?t=1630033759944") format("truetype"); }
</style></defs><path d="M789.461333 917.333333h-101.504a51.626667 51.626667 0 0 1-48.128-33.365333l-20.906666-55.509333a21.333333 21.333333 0 1 1 39.936-15.018667l20.906666 55.552a8.704 8.704 0 0 0 8.192 5.674667h101.504a8.746667 8.746667 0 0 0 8.576-10.368l-22.016-113.92 12.373334-7.722667a324.821333 324.821333 0 0 0 106.154666-104.917333l8.704-14.421334 49.664 15.957334a9.386667 9.386667 0 0 0 6.869334-0.682667 8.618667 8.618667 0 0 0 4.224-5.418667l23.978666-92.032a8.746667 8.746667 0 0 0-6.442666-10.666666l-50.005334-12.032-0.597333-16.213334a257.28 257.28 0 0 0-74.24-168.362666l-10.453333-11.050667 39.765333-76.202667a8.490667 8.490667 0 0 0 0.128-7.850666 8.618667 8.618667 0 0 0-6.272-4.864 133.504 133.504 0 0 0-107.349333 20.693333l-11.392 10.325333-13.397334-7.509333a347.306667 347.306667 0 0 0-191.786666-43.050667c-235.093333 0-375.509333 150.613333-375.509334 296.234667a268.373333 268.373333 0 0 0 116.693334 213.973333l10.666666 8.021334-25.557333 131.669333a8.661333 8.661333 0 0 0 8.533333 10.410667h101.546667a8.789333 8.789333 0 0 0 8.106667-5.674667l23.381333-61.568a21.333333 21.333333 0 0 1 39.893333 15.061333l-23.338666 61.568a51.669333 51.669333 0 0 1-48.085334 33.28H290.816a51.413333 51.413333 0 0 1-50.474667-61.269333l20.522667-105.642667a311.168 311.168 0 0 1-123.093333-239.829333c0-166.613333 156.416-338.901333 418.176-338.901333a397.568 397.568 0 0 1 200.106666 41.728 184.704 184.704 0 0 1 131.968-21.376 51.456 51.456 0 0 1 35.84 74.325333l-25.856 49.536a298.496 298.496 0 0 1 74.538667 168.533333l18.944 4.522667a51.413333 51.413333 0 0 1 37.76 62.933333l-23.936 91.989334a51.285333 51.285333 0 0 1-65.493333 35.968l-17.92-5.717334a369.706667 369.706667 0 0 1-98.56 96.64l16.597333 85.376a51.456 51.456 0 0 1-50.474667 61.184z" fill="#757575" p-id="78223"></path><path d="M141.226667 401.28a119.637333 119.637333 0 0 1-68.864-21.76 100.48 100.48 0 0 1-24.661334-140.074667 85.12 85.12 0 0 1 142.378667 4.821334 21.333333 21.333333 0 0 1-35.925333 23.04 43.178667 43.178667 0 0 0-36.096-21.333334 41.898667 41.898667 0 0 0-35.413334 17.962667 57.941333 57.941333 0 0 0 14.250667 80.64 77.866667 77.866667 0 0 0 108.245333-19.072 21.333333 21.333333 0 0 1 34.901334 24.490667 120.405333 120.405333 0 0 1-98.773334 51.285333zM381.866667 359.594667a21.333333 21.333333 0 0 1-9.557334-40.448 420.309333 420.309333 0 0 1 231.893334-35.84 21.333333 21.333333 0 1 1-7.424 41.984 382.506667 382.506667 0 0 0-205.525334 32.128 21.205333 21.205333 0 0 1-9.386666 2.176zM555.946667 849.408a508.928 508.928 0 0 1-117.077334-13.696q-19.754667-4.650667-38.741333-10.709333a21.333333 21.333333 0 1 1 13.013333-40.661334c11.562667 3.669333 23.424 7.04 35.498667 9.813334a464.810667 464.810667 0 0 0 186.624 5.76c13.952-2.389333 27.562667-5.376 40.917333-8.96a21.333333 21.333333 0 0 1 11.093334 41.216 487.253333 487.253333 0 0 1-44.8 9.813333 514.389333 514.389333 0 0 1-86.570667 7.424zM806.912 490.666667a21.333333 21.333333 0 0 1-21.333333-21.333334v-42.666666a21.333333 21.333333 0 0 1 42.666666 0v42.666666a21.333333 21.333333 0 0 1-21.333333 21.333334z" fill="#757575" p-id="78224"></path></svg>