<?xml version="1.0" standalone="no"?><!DOCTYPE svg PUBLIC "-//W3C//DTD SVG 1.1//EN" "http://www.w3.org/Graphics/SVG/1.1/DTD/svg11.dtd"><svg t="1655829210595" class="icon" viewBox="0 0 1024 1024" version="1.1" xmlns="http://www.w3.org/2000/svg" p-id="77027" xmlns:xlink="http://www.w3.org/1999/xlink" width="64" height="64"><defs><style type="text/css">@font-face { font-family: feedback-iconfont; src: url("//at.alicdn.com/t/font_1031158_u69w8yhxdu.woff2?t=1630033759944") format("woff2"), url("//at.alicdn.com/t/font_1031158_u69w8yhxdu.woff?t=1630033759944") format("woff"), url("//at.alicdn.com/t/font_1031158_u69w8yhxdu.ttf?t=1630033759944") format("truetype"); }
</style></defs><path d="M512 867.2c-95.2 0-184-36.8-251.2-104-138.4-138.4-138.4-364 0-502.4 67.2-67.2 156-104 251.2-104s184 36.8 251.2 104c67.2 67.2 104 156 104 251.2s-36.8 184-104 251.2c-67.2 67.2-156 104-251.2 104z m0-678.4c-86.4 0-167.2 33.6-228.8 94.4-125.6 125.6-125.6 331.2 0 456.8 60.8 60.8 142.4 94.4 228.8 94.4s167.2-33.6 228.8-94.4c60.8-60.8 94.4-142.4 94.4-228.8S801.6 344 740.8 282.4C679.2 222.4 598.4 188.8 512 188.8z" p-id="77028"></path><path d="M512 772c-69.6 0-134.4-27.2-184-76-100.8-101.6-100.8-266.4 0-368 48.8-48.8 114.4-76 184-76s134.4 27.2 184 76c48.8 48.8 76 114.4 76 184S744.8 646.4 696 696c-49.6 48.8-114.4 76-184 76z m0-504c-64.8 0-126.4 25.6-172 71.2-95.2 95.2-95.2 249.6 0 344.8 46.4 46.4 107.2 71.2 172 71.2s126.4-25.6 172-71.2c46.4-46.4 71.2-107.2 71.2-172s-25.6-126.4-71.2-172c-45.6-46.4-107.2-72-172-72z" p-id="77029"></path><path d="M531.2 634.4c-4 0-7.2-2.4-8-6.4L504 513.6c-0.8-2.4 0.8-4.8 2.4-7.2L628.8 384c3.2-3.2 8-3.2 11.2 0 3.2 3.2 3.2 8 0 11.2L520.8 514.4l18.4 110.4c0.8 4-2.4 8.8-6.4 9.6h-1.6zM850.4 508.8c-1.6 0-4 0-5.6-0.8-5.6-2.4-9.6-8-10.4-14.4-4.8-79.2-37.6-153.6-94.4-210.4-56-56-130.4-89.6-210.4-94.4-6.4 0-12-4-14.4-10.4-2.4-5.6-0.8-12.8 4-16.8L673.6 8.8c6.4-6.4 16-6.4 22.4 0L1015.2 328c6.4 6.4 6.4 16 0 22.4L861.6 504c-3.2 3.2-7.2 4.8-11.2 4.8zM566.4 160.8c74.4 11.2 143.2 46.4 196.8 100 53.6 53.6 88 122.4 100 196.8l118.4-118.4L684.8 42.4 566.4 160.8zM339.2 1020c-4 0-8-1.6-11.2-4.8L8.8 696c-6.4-6.4-6.4-16 0-22.4L162.4 520c4.8-4.8 11.2-5.6 16.8-4 5.6 2.4 9.6 8 10.4 14.4 4.8 79.2 37.6 153.6 94.4 210.4 56 56 130.4 89.6 210.4 94.4 6.4 0 12 4 14.4 10.4 2.4 5.6 0.8 12.8-4 16.8L351.2 1016c-4 2.4-8 4-12 4zM42.4 684.8l296.8 296.8 118.4-118.4c-74.4-11.2-143.2-46.4-196.8-100-53.6-53.6-88-122.4-100-196.8L42.4 684.8z" p-id="77030"></path></svg>