<?xml version="1.0" standalone="no"?><!DOCTYPE svg PUBLIC "-//W3C//DTD SVG 1.1//EN" "http://www.w3.org/Graphics/SVG/1.1/DTD/svg11.dtd"><svg t="1652108998223" class="icon" viewBox="0 0 1024 1024" version="1.1" xmlns="http://www.w3.org/2000/svg" p-id="1061" xmlns:xlink="http://www.w3.org/1999/xlink" width="200" height="200"><defs><style type="text/css">@font-face { font-family: feedback-iconfont; src: url("//at.alicdn.com/t/font_1031158_u69w8yhxdu.woff2?t=1630033759944") format("woff2"), url("//at.alicdn.com/t/font_1031158_u69w8yhxdu.woff?t=1630033759944") format("woff"), url("//at.alicdn.com/t/font_1031158_u69w8yhxdu.ttf?t=1630033759944") format("truetype"); }
</style></defs><path d="M343.26493367 111.8433762c14.92535503 0 29.85071007 5.65592402 41.31966708 17.12488105L726.29667642 470.68033294c22.78080506 22.78080506 22.78080506 59.7014201 1e-8 82.48222516s-59.7014201 22.78080506-82.48222518-1e-8l-341.71207567-341.71207569c-22.78080506-22.78080506-22.78080506-59.7014201 0-82.48222515 11.31184801-11.46895702 26.23720306-17.12488105 41.16255809-17.12488105z" p-id="1062"></path><path d="M685.13411835 453.39834288c14.92535503 0 29.85071007 5.65592402 41.31966707 17.12488103 22.78080506 22.78080506 22.78080506 59.7014201 1e-8 82.48222518l-341.86918468 341.86918468c-22.78080506 22.78080506-59.7014201 22.78080506-82.48222517 0s-22.78080506-59.7014201 0-82.48222517L643.81445125 470.36611493a58.66450071 58.66450071 0 0 1 41.3196671-16.96777205z"  p-id="1063"></path></svg>