<?xml version="1.0" standalone="no"?><!DOCTYPE svg PUBLIC "-//W3C//DTD SVG 1.1//EN" "http://www.w3.org/Graphics/SVG/1.1/DTD/svg11.dtd"><svg t="1655829215021" class="icon" viewBox="0 0 1024 1024" version="1.1" xmlns="http://www.w3.org/2000/svg" p-id="77177" xmlns:xlink="http://www.w3.org/1999/xlink" width="64" height="64"><defs><style type="text/css">@font-face { font-family: feedback-iconfont; src: url("//at.alicdn.com/t/font_1031158_u69w8yhxdu.woff2?t=1630033759944") format("woff2"), url("//at.alicdn.com/t/font_1031158_u69w8yhxdu.woff?t=1630033759944") format("woff"), url("//at.alicdn.com/t/font_1031158_u69w8yhxdu.ttf?t=1630033759944") format("truetype"); }
</style></defs><path d="M318.077373 0a60.616348 60.616348 0 0 0-60.501977 60.501978v372.321623c0 89.975248 66.712294 193.915129 148.933224 228.043277 187.704813 77.566052 367.655308-58.957976 367.655307-235.797595V60.501978A60.616348 60.616348 0 0 0 713.66195 0z m395.584577 425.069283c0 136.512591-141.167469 241.996474-285.434379 178.417931-66.712294-29.47327-108.59476-97.729565-108.594759-170.640739V85.320369a24.498154 24.498154 0 0 1 24.818391-24.818391H685.744118a29.450396 29.450396 0 0 1 29.530455 29.47327v335.105472z" p-id="77178"></path><path d="M702.808192 218.733521H321.18825a24.509591 24.509591 0 0 1-24.829829-24.818392v-10.853757a24.509591 24.509591 0 0 1 24.829829-24.818392h381.619942a24.498154 24.498154 0 0 1 24.818392 24.818392v10.853757c1.555438 12.409196-10.853757 24.818392-24.818392 24.818392zM521.302259 994.394038h-10.853758a24.509591 24.509591 0 0 1-24.829828-24.784081V729.123173a24.509591 24.509591 0 0 1 24.829828-24.852703h10.853758a24.498154 24.498154 0 0 1 24.818391 24.818392v240.521095a24.498154 24.498154 0 0 1-24.818391 24.784081z" p-id="77179"></path><path d="M248.277076 999.048916v-10.853758a24.509591 24.509591 0 0 1 24.818392-24.829828h477.805506a24.509591 24.509591 0 0 1 24.818392 24.829828v10.853758a24.498154 24.498154 0 0 1-24.818392 24.818391H273.095468C259.130834 1025.422746 248.277076 1013.070735 248.277076 999.048916z" p-id="77180"></path></svg>