<?xml version="1.0" standalone="no"?><!DOCTYPE svg PUBLIC "-//W3C//DTD SVG 1.1//EN" "http://www.w3.org/Graphics/SVG/1.1/DTD/svg11.dtd"><svg t="1655829201613" class="icon" viewBox="0 0 1024 1024" version="1.1" xmlns="http://www.w3.org/2000/svg" p-id="76730" xmlns:xlink="http://www.w3.org/1999/xlink" width="64" height="64"><defs><style type="text/css">@font-face { font-family: feedback-iconfont; src: url("//at.alicdn.com/t/font_1031158_u69w8yhxdu.woff2?t=1630033759944") format("woff2"), url("//at.alicdn.com/t/font_1031158_u69w8yhxdu.woff?t=1630033759944") format("woff"), url("//at.alicdn.com/t/font_1031158_u69w8yhxdu.ttf?t=1630033759944") format("truetype"); }
</style></defs><path d="M734.7 938.2h-69a15 15 0 0 1 0-30h54V414.8a14.8 14.8 0 0 1 3-9.1l72.4-94.8a15 15 0 1 1 23.8 18.2l-69.2 90.8v503.3a15 15 0 0 1-15 15zM629 938.2h-12a15 15 0 0 1 0-30h12a15 15 0 0 1 0 30zM574.7 938.2h-283a15 15 0 0 1-15-14.9l-4.9-503.5L204 329a15 15 0 0 1 24-18l70.7 94.8a15.1 15.1 0 0 1 3 8.8l4.9 493.6h268.1a15 15 0 0 1 0 30zM511.9 314.8a96.7 96.7 0 0 1-53.5-16.2c-31.4-20.8-62.2-42.4-91.7-64.1a15.2 15.2 0 0 1-6.1-12.1c0-14.9 4.4-25.9 13-33 15.8-12.8 39.3-7.9 69-1.7 21.1 4.3 44.9 9.3 70.4 9.3s49.4-4.9 70.4-9.3c29.9-6.2 53.5-11.1 69.3 1.8 8.7 7 13 18.1 13 32.9a14.9 14.9 0 0 1-6.5 12.4l-92.8 63.1a96.2 96.2 0 0 1-54.5 16.9z m-120.5-99.5c27 19.8 55 39.3 83.6 58.3a66.6 66.6 0 0 0 74.5-0.5l85.4-58.1a5.9 5.9 0 0 0-1.1-2.3c-0.4-0.3-2.8-1.8-11.9-1.2s-19.6 2.9-32.4 5.6c-21.4 4.4-48 9.9-76.5 9.9s-55.1-5.5-76.5-9.9c-12.7-2.7-23.6-5-32.2-5.6s-11.5 1-11.7 1.2a5.1 5.1 0 0 0-1.2 2.6z m259.3 7.1z" p-id="76731"></path><path d="M192 902a15.2 15.2 0 0 1-4.2-0.6l-104-30a14.9 14.9 0 0 1-10.6-16.6l61.7-425.2a197 197 0 0 1 71.2-125.2l0.9-0.8 160-109.5a15 15 0 1 1 17 24.8L224.5 328a167.1 167.1 0 0 0-59.9 105.9l-59.9 412.3 76.4 22.1L271.9 495a15 15 0 0 1 29.2 7l-94.5 388.5A15 15 0 0 1 192 902zM831 902a15 15 0 0 1-14.6-11.5L721.9 499a15 15 0 0 1 29.2-7l90.8 376.2 76.4-22-59.9-412.3A167.1 167.1 0 0 0 798.5 328L641.9 218.8a15 15 0 1 1 17.2-24.6l157 109.5a2.7 2.7 0 0 1 0.8 0.7 197 197 0 0 1 71.2 125.2l61.7 425.2a14.9 14.9 0 0 1-10.6 16.6l-104 30a15.2 15.2 0 0 1-4.2 0.6zM655 446h-59a15 15 0 0 1 0-30h59a15 15 0 0 1 0 30z" p-id="76732"></path></svg>