<?xml version="1.0" standalone="no"?><!DOCTYPE svg PUBLIC "-//W3C//DTD SVG 1.1//EN" "http://www.w3.org/Graphics/SVG/1.1/DTD/svg11.dtd"><svg t="1655829263145" class="icon" viewBox="0 0 1024 1024" version="1.1" xmlns="http://www.w3.org/2000/svg" p-id="78371" xmlns:xlink="http://www.w3.org/1999/xlink" width="64" height="64"><defs><style type="text/css">@font-face { font-family: feedback-iconfont; src: url("//at.alicdn.com/t/font_1031158_u69w8yhxdu.woff2?t=1630033759944") format("woff2"), url("//at.alicdn.com/t/font_1031158_u69w8yhxdu.woff?t=1630033759944") format("woff"), url("//at.alicdn.com/t/font_1031158_u69w8yhxdu.ttf?t=1630033759944") format("truetype"); }
</style></defs><path d="M204.8 382.165333a21.333333 21.333333 0 0 1-14.592-36.906666l177.28-166.272a21.333333 21.333333 0 0 1 29.184 31.146666L219.392 376.362667a21.248 21.248 0 0 1-14.592 5.76zM209.92 960a106.666667 106.666667 0 0 1-105.941333-96.256l-33.28-339.712A106.837333 106.837333 0 0 1 166.442667 407.466667l637.013333-62.421334a106.666667 106.666667 0 0 1 116.522667 95.744l33.28 339.712a106.837333 106.837333 0 0 1-95.701334 116.565334l-637.013333 62.421333a106.666667 106.666667 0 0 1-10.581333 0.512zM813.994667 387.2q-3.2 0-6.4 0.298667L170.666667 449.92a64.085333 64.085333 0 0 0-57.429334 69.973333l33.28 339.669334a63.914667 63.914667 0 0 0 69.973334 57.472L853.333333 854.613333a64.085333 64.085333 0 0 0 57.429334-69.973333l-33.28-339.669333a63.914667 63.914667 0 0 0-63.573334-57.770667z m41.514666 488.618667zM461.141333 190.250667a64 64 0 1 1 64-64 64.085333 64.085333 0 0 1-64 64z m0-85.333334a21.333333 21.333333 0 1 0 21.333334 21.333334 21.333333 21.333333 0 0 0-21.333334-21.333334z" p-id="78372"></path><path d="M274.048 805.802667a75.818667 75.818667 0 0 1-75.264-68.266667l-10.581333-108.117333a75.648 75.648 0 0 1 150.613333-14.762667l10.538667 108.117333a75.648 75.648 0 0 1-67.882667 82.645334 74.154667 74.154667 0 0 1-7.424 0.384z m5.333333-21.632z m-15.829333-195.114667a33.962667 33.962667 0 0 0-3.242667 0.170667 33.024 33.024 0 0 0-29.610666 36.053333l10.581333 108.074667a32.981333 32.981333 0 0 0 65.621333-6.4l-10.624-108.117334a33.024 33.024 0 0 0-32.725333-29.781333zM405.461333 793.173333a21.333333 21.333333 0 0 1-21.205333-19.242666l-21.205333-216.192a21.333333 21.333333 0 0 1 19.157333-23.338667l54.101333-5.290667a75.648 75.648 0 0 1 14.72 150.570667l-32.853333 3.2 8.576 86.869333a21.333333 21.333333 0 0 1-19.2 23.296 23.893333 23.893333 0 0 1-2.133333 0.128z m2.133334-218.368l6.442666 65.621334 32.853334-3.2a32.981333 32.981333 0 0 0-6.4-65.664zM567.637333 777.258667a21.376 21.376 0 0 1-21.248-19.2l-21.162666-216.234667a21.333333 21.333333 0 0 1 42.496-4.138667l19.072 194.944 50.816-4.992a21.717333 21.717333 0 0 1 23.338666 19.157334 21.333333 21.333333 0 0 1-19.157333 23.296l-72.106667 7.082666a23.168 23.168 0 0 1-2.048 0.085334z" p-id="78373"></path><path d="M546.432 561.066667a21.333333 21.333333 0 0 1-2.048-42.538667l72.021333-7.082667a21.333333 21.333333 0 1 1 4.181334 42.453334l-72.064 7.082666a24.277333 24.277333 0 0 1-2.133334 0.085334zM557.013333 669.184a21.333333 21.333333 0 0 1-2.048-42.538667l72.021334-7.082666a21.333333 21.333333 0 1 1 4.181333 42.453333l-72.064 7.082667a24.106667 24.106667 0 0 1-2.133333 0.085333zM711.68 763.136a21.333333 21.333333 0 0 1-21.162667-19.2l-21.205333-216.234667a21.333333 21.333333 0 0 1 39.253333-13.44l81.237334 129.109334-12.373334-126.250667a21.333333 21.333333 0 0 1 42.496-4.181333l21.162667 216.192a21.333333 21.333333 0 0 1-39.296 13.44l-81.194667-129.109334 12.373334 126.293334a21.333333 21.333333 0 0 1-19.157334 23.296 24.32 24.32 0 0 1-2.133333 0.085333zM756.778667 328.064a21.248 21.248 0 0 1-11.264-3.242667L540.16 196.693333a21.333333 21.333333 0 0 1 22.613333-36.224l205.312 128.170667a21.333333 21.333333 0 0 1-11.306666 39.424z" p-id="78374"></path></svg>